<svg width="248" height="27" viewBox="0 0 248 27" fill="none" xmlns="http://www.w3.org/2000/svg">
<path d="M9.36719 8.10938C8.3776 8.16146 7.54427 8.53906 6.86719 9.24219C6.21615 9.94531 5.7474 10.7526 5.46094 11.6641C5.17448 12.5495 5.03125 13.4609 5.03125 14.3984C5.03125 15.3359 5.16146 16.2604 5.42188 17.1719C5.70833 18.0833 6.1901 18.8906 6.86719 19.5938C7.54427 20.2708 8.3776 20.6354 9.36719 20.6875H22.2578C23.8984 20.8438 24.7969 21.7422 24.9531 23.3828C24.9271 24.112 24.6536 24.724 24.1328 25.2188C23.612 25.6875 22.987 25.9219 22.2578 25.9219H9.79688H8C6.17708 25.8177 4.67969 25.1276 3.50781 23.8516C2.33594 22.5495 1.48958 21.0781 0.96875 19.4375C0.473958 17.7969 0.226562 16.1172 0.226562 14.3984C0.226562 13.1224 0.369792 11.8594 0.65625 10.6094C0.942708 9.35938 1.38542 8.17448 1.98438 7.05469C2.60938 5.90885 3.42969 4.93229 4.44531 4.125C5.48698 3.31771 6.67188 2.90104 8 2.875H8.74219H22.2578C23.8984 3.03125 24.7969 3.92969 24.9531 5.57031C24.9531 6.29948 24.6797 6.91146 24.1328 7.40625C23.612 7.875 22.987 8.10938 22.2578 8.10938H9.36719ZM36.6328 25.9219C34.3411 25.8438 32.6094 25.3099 31.4375 24.3203C30.2656 23.3047 29.4193 22.1719 28.8984 20.9219C28.3776 19.6458 28.1172 18.3568 28.1172 17.0547C28.1172 15.7005 28.3646 14.3984 28.8594 13.1484C29.3802 11.8724 30.2266 10.7396 31.3984 9.75C32.5964 8.73438 34.1068 8.21354 35.9297 8.1875H48.5859C50.4089 8.21354 51.9062 8.73438 53.0781 9.75C54.276 10.7396 55.1224 11.8724 55.6172 13.1484C56.138 14.3984 56.3984 15.7005 56.3984 17.0547C56.3984 18.3568 56.138 19.6458 55.6172 20.9219C55.0964 22.1719 54.25 23.3047 53.0781 24.3203C51.9062 25.3099 50.1745 25.8438 47.8828 25.9219H36.6328ZM35.7734 13.4219C35.2786 13.4219 34.849 13.6302 34.4844 14.0469C34.1198 14.4375 33.8464 14.9062 33.6641 15.4531C33.5078 15.974 33.4297 16.4948 33.4297 17.0156C33.4297 17.5625 33.5078 18.1094 33.6641 18.6562C33.8464 19.1771 34.1198 19.6458 34.4844 20.0625C34.849 20.4531 35.2786 20.6615 35.7734 20.6875H48.7422C49.237 20.6615 49.6667 20.4531 50.0312 20.0625C50.3958 19.6458 50.6562 19.1771 50.8125 18.6562C50.9948 18.1094 51.0859 17.5625 51.0859 17.0156C51.0859 16.4948 50.9948 15.974 50.8125 15.4531C50.6562 14.9062 50.3958 14.4375 50.0312 14.0469C49.6667 13.6302 49.237 13.4219 48.7422 13.4219H35.7734ZM73.3516 26.5859C71.9974 26.5859 70.6562 26.4297 69.3281 26.1172C68.026 25.8047 66.776 25.349 65.5781 24.75C64.3802 24.125 63.3255 23.3047 62.4141 22.2891C61.5026 21.2734 61.0078 20.0625 60.9297 18.6562V17.0156V10.3359C60.9297 9.60677 61.1901 9.00781 61.7109 8.53906C62.2578 8.04427 62.8958 7.79688 63.625 7.79688C65.1875 7.92708 66.0339 8.77344 66.1641 10.3359V12.0547V17.4453C66.2161 18.2526 66.5156 18.9297 67.0625 19.4766C67.6354 19.9974 68.2604 20.4141 68.9375 20.7266C69.6406 21.0391 70.3568 21.2734 71.0859 21.4297C71.8411 21.5859 72.5964 21.6641 73.3516 21.6641C74.1068 21.6641 74.849 21.5859 75.5781 21.4297C76.3333 21.2734 77.0495 21.0391 77.7266 20.7266C78.4297 20.4141 79.0547 19.9974 79.6016 19.4766C80.1745 18.9297 80.487 18.2526 80.5391 17.4453V12.0547V10.3359C80.5391 9.60677 80.7995 9.00781 81.3203 8.53906C81.8672 8.04427 82.5052 7.79688 83.2344 7.79688C84.7969 7.92708 85.6562 8.77344 85.8125 10.3359V17.0156V18.6562C85.7344 20.0625 85.2266 21.2734 84.2891 22.2891C83.3776 23.3047 82.3229 24.125 81.125 24.75C79.9271 25.349 78.6641 25.8047 77.3359 26.1172C76.0339 26.4297 74.7057 26.5859 73.3516 26.5859ZM91.6328 13.1094C92.1276 11.8594 92.9609 10.7396 94.1328 9.75C95.3307 8.73438 96.8411 8.21354 98.6641 8.1875H113.352C114.081 8.1875 114.693 8.44792 115.188 8.96875C115.708 9.46354 115.969 10.0755 115.969 10.8047C115.969 11.5339 115.708 12.1589 115.188 12.6797C114.693 13.1745 114.081 13.4219 113.352 13.4219H98.5078C98.013 13.4219 97.5833 13.6302 97.2188 14.0469C96.8542 14.4375 96.5677 14.9062 96.3594 15.4531C96.1771 16 96.0859 16.5208 96.0859 17.0156V23.8516C95.9297 25.4141 95.0703 26.2604 93.5078 26.3906C92.7786 26.3906 92.1406 26.1562 91.5938 25.6875C91.0729 25.1927 90.8125 24.5807 90.8125 23.8516V17.0547H90.8516C90.8516 15.7005 91.112 14.3854 91.6328 13.1094ZM122.531 7.79688C123.234 7.82292 123.833 8.08333 124.328 8.57812C124.823 9.04688 125.083 9.63281 125.109 10.3359V23.8516C124.953 25.4141 124.094 26.2604 122.531 26.3906C121.802 26.3906 121.164 26.1562 120.617 25.6875C120.096 25.1927 119.836 24.5807 119.836 23.8516V10.3359C119.862 9.60677 120.135 9.00781 120.656 8.53906C121.177 8.04427 121.802 7.79688 122.531 7.79688ZM119.25 2.71875C119.25 1.98958 119.562 1.36458 120.188 0.84375C120.812 0.322917 121.568 0.0625 122.453 0.0625C123.339 0.0625 124.094 0.322917 124.719 0.84375C125.344 1.36458 125.656 1.98958 125.656 2.71875C125.656 3.47396 125.344 4.11198 124.719 4.63281C124.094 5.15365 123.339 5.41406 122.453 5.41406C121.568 5.41406 120.812 5.15365 120.188 4.63281C119.562 4.11198 119.25 3.47396 119.25 2.71875ZM137.883 25.9219C135.591 25.8438 133.859 25.3099 132.688 24.3203C131.516 23.3047 130.669 22.1719 130.148 20.9219C129.628 19.6458 129.367 18.3568 129.367 17.0547C129.367 15.7005 129.615 14.3984 130.109 13.1484C130.63 11.8724 131.477 10.7396 132.648 9.75C133.846 8.73438 135.357 8.21354 137.18 8.1875H152.023C152.753 8.1875 153.365 8.4349 153.859 8.92969C154.38 9.39844 154.641 9.97135 154.641 10.6484C154.641 11.3516 154.38 11.9505 153.859 12.4453C153.365 12.9141 152.753 13.1484 152.023 13.1484H137.414C136.841 13.1484 136.333 13.3438 135.891 13.7344C135.474 14.125 135.161 14.6328 134.953 15.2578C134.771 15.8828 134.68 16.4948 134.68 17.0938C134.68 17.7448 134.771 18.3828 134.953 19.0078C135.161 19.6328 135.474 20.1406 135.891 20.5312C136.333 20.8958 136.841 21.0911 137.414 21.1172H152.023C152.753 21.1172 153.365 21.3516 153.859 21.8203C154.38 22.2891 154.641 22.849 154.641 23.5C154.641 24.1771 154.38 24.75 153.859 25.2188C153.365 25.6875 152.753 25.9219 152.023 25.9219H137.883ZM154.172 16.9766C154.172 17.4714 153.951 17.901 153.508 18.2656C153.117 18.6042 152.622 18.7734 152.023 18.7734H139.25C138.651 18.7734 138.143 18.6042 137.727 18.2656C137.31 17.901 137.102 17.4714 137.102 16.9766C137.102 16.5078 137.31 16.0911 137.727 15.7266C138.143 15.388 138.651 15.2188 139.25 15.2188H152.023C152.622 15.2188 153.13 15.401 153.547 15.7656C153.964 16.1042 154.172 16.5078 154.172 16.9766ZM159.953 13.1094C160.448 11.8594 161.281 10.7396 162.453 9.75C163.651 8.73438 165.161 8.21354 166.984 8.1875H181.672C182.401 8.1875 183.013 8.44792 183.508 8.96875C184.029 9.46354 184.289 10.0755 184.289 10.8047C184.289 11.5339 184.029 12.1589 183.508 12.6797C183.013 13.1745 182.401 13.4219 181.672 13.4219H166.828C166.333 13.4219 165.904 13.6302 165.539 14.0469C165.174 14.4375 164.888 14.9062 164.68 15.4531C164.497 16 164.406 16.5208 164.406 17.0156V23.8516C164.25 25.4141 163.391 26.2604 161.828 26.3906C161.099 26.3906 160.461 26.1562 159.914 25.6875C159.393 25.1927 159.133 24.5807 159.133 23.8516V17.0547H159.172C159.172 15.7005 159.432 14.3854 159.953 13.1094ZM190.852 2.25C191.555 2.27604 192.154 2.53646 192.648 3.03125C193.143 3.5 193.404 4.08594 193.43 4.78906V23.9297C193.273 25.4922 192.414 26.3385 190.852 26.4688C190.122 26.4688 189.484 26.2344 188.938 25.7656C188.417 25.2708 188.156 24.6589 188.156 23.9297V4.78906C188.182 4.0599 188.456 3.46094 188.977 2.99219C189.497 2.4974 190.122 2.25 190.852 2.25ZM197.531 9.125C199.276 7.95312 201.633 6.76823 204.602 5.57031L211.008 2.83594C211.294 2.70573 211.607 2.6276 211.945 2.60156C212.674 2.54948 213.299 2.77083 213.82 3.26562C214.341 3.73438 214.602 4.34635 214.602 5.10156C214.602 5.96094 214.419 6.59896 214.055 7.01562C213.716 7.40625 213.273 7.73177 212.727 7.99219L207.258 10.0625C206.19 10.4792 205.174 10.8958 204.211 11.3125C203.273 11.7031 202.414 12.1589 201.633 12.6797C200.852 13.1484 200.435 13.6823 200.383 14.2812C200.435 14.8542 200.852 15.388 201.633 15.8828C202.414 16.4036 203.273 16.8724 204.211 17.2891C205.174 17.6797 206.19 18.0833 207.258 18.5L213.352 20.7266C213.898 20.987 214.341 21.3255 214.68 21.7422C215.044 22.1328 215.227 22.7578 215.227 23.6172C215.227 24.3724 214.966 24.9974 214.445 25.4922C213.924 25.9609 213.299 26.1693 212.57 26.1172C212.232 26.0911 211.919 26.013 211.633 25.8828L204.602 22.9922C201.633 21.7943 199.263 20.6094 197.492 19.4375C195.747 18.2396 194.862 16.5208 194.836 14.2812C194.862 12.0417 195.76 10.3229 197.531 9.125ZM227.258 25.9219C224.966 25.8438 223.234 25.3099 222.062 24.3203C220.891 23.3047 220.044 22.1719 219.523 20.9219C219.003 19.6458 218.742 18.3568 218.742 17.0547C218.742 15.7005 218.99 14.3984 219.484 13.1484C220.005 11.8724 220.852 10.7396 222.023 9.75C223.221 8.73438 224.732 8.21354 226.555 8.1875H239.211C241.034 8.21354 242.531 8.73438 243.703 9.75C244.901 10.7396 245.747 11.8724 246.242 13.1484C246.763 14.3984 247.023 15.7005 247.023 17.0547C247.023 18.3568 246.763 19.6458 246.242 20.9219C245.721 22.1719 244.875 23.3047 243.703 24.3203C242.531 25.3099 240.799 25.8438 238.508 25.9219H227.258ZM226.398 13.4219C225.904 13.4219 225.474 13.6302 225.109 14.0469C224.745 14.4375 224.471 14.9062 224.289 15.4531C224.133 15.974 224.055 16.4948 224.055 17.0156C224.055 17.5625 224.133 18.1094 224.289 18.6562C224.471 19.1771 224.745 19.6458 225.109 20.0625C225.474 20.4531 225.904 20.6615 226.398 20.6875H239.367C239.862 20.6615 240.292 20.4531 240.656 20.0625C241.021 19.6458 241.281 19.1771 241.438 18.6562C241.62 18.1094 241.711 17.5625 241.711 17.0156C241.711 16.4948 241.62 15.974 241.438 15.4531C241.281 14.9062 241.021 14.4375 240.656 14.0469C240.292 13.6302 239.862 13.4219 239.367 13.4219H226.398Z" fill="#FFFAFA"/>
</svg>
