<svg width="179" height="25" viewBox="0 0 179 25" fill="none" xmlns="http://www.w3.org/2000/svg">
<path d="M12.9219 24.8203C11.5677 24.8203 10.2266 24.6641 8.89844 24.3516C7.59635 24.0391 6.34635 23.5833 5.14844 22.9844C3.95052 22.3594 2.89583 21.5391 1.98438 20.5234C1.07292 19.5078 0.578125 18.2969 0.5 16.8906V15.25V2.78906C0.5 2.0599 0.760417 1.46094 1.28125 0.992188C1.82812 0.497396 2.46615 0.25 3.19531 0.25C4.75781 0.380208 5.60417 1.22656 5.73438 2.78906V15.6797C5.78646 16.487 6.08594 17.1641 6.63281 17.7109C7.20573 18.2318 7.83073 18.6484 8.50781 18.9609C9.21094 19.2734 9.92708 19.5078 10.6562 19.6641C11.4115 19.8203 12.1667 19.8984 12.9219 19.8984C13.6771 19.8984 14.4193 19.8203 15.1484 19.6641C15.9036 19.5078 16.6198 19.2734 17.2969 18.9609C18 18.6484 18.625 18.2318 19.1719 17.7109C19.7448 17.1641 20.0573 16.487 20.1094 15.6797V2.78906C20.1094 2.0599 20.3698 1.46094 20.8906 0.992188C21.4375 0.497396 22.0755 0.25 22.8047 0.25C24.3672 0.380208 25.2266 1.22656 25.3828 2.78906V15.25V16.8906C25.3047 18.2969 24.7969 19.5078 23.8594 20.5234C22.9479 21.5391 21.8932 22.3594 20.6953 22.9844C19.4974 23.5833 18.2344 24.0391 16.9062 24.3516C15.6042 24.6641 14.276 24.8203 12.9219 24.8203ZM55.3828 8.45312C55.3828 9.10417 55.1224 9.65104 54.6016 10.0938C54.1068 10.5104 53.4948 10.7188 52.7656 10.7188H36.2422C35.9036 10.7188 35.6302 10.7839 35.4219 10.9141C35.2135 11.0443 35.0573 11.1875 34.9531 11.3438C34.849 11.474 34.7969 11.5911 34.7969 11.6953C34.7969 11.8255 34.849 11.9688 34.9531 12.125C35.0573 12.2552 35.2135 12.3854 35.4219 12.5156C35.6302 12.6198 35.9036 12.6849 36.2422 12.7109H49.0156C50.6562 12.737 52.0104 13.0625 53.0781 13.6875C54.1458 14.2865 54.901 15.0026 55.3438 15.8359C55.8125 16.6432 56.0469 17.4635 56.0469 18.2969C56.0469 19.1042 55.8125 19.9245 55.3438 20.7578C54.875 21.5651 54.1068 22.2812 53.0391 22.9062C51.9974 23.5052 50.6562 23.8047 49.0156 23.8047C48.7292 23.8307 48.5208 23.8438 48.3906 23.8438H33.2344C32.5052 23.8438 31.8802 23.6354 31.3594 23.2188C30.8646 22.776 30.6172 22.2422 30.6172 21.6172C30.6172 20.9661 30.8776 20.4193 31.3984 19.9766C31.8932 19.5599 32.5052 19.3516 33.2344 19.3516H49.3281C49.7188 19.3776 50.0312 19.3255 50.2656 19.1953C50.526 19.0651 50.7214 18.9219 50.8516 18.7656C50.9818 18.6094 51.0469 18.4531 51.0469 18.2969C51.0469 18.2188 50.9818 18.0885 50.8516 17.9062C50.7214 17.6979 50.526 17.5417 50.2656 17.4375C50.0312 17.3073 49.7188 17.2292 49.3281 17.2031H36.5156C35.0052 17.1771 33.7552 16.8646 32.7656 16.2656C31.776 15.6406 31.0729 14.9245 30.6562 14.1172C30.2396 13.3099 30.0312 12.5026 30.0312 11.6953C30.0312 10.888 30.2396 10.0938 30.6562 9.3125C31.099 8.50521 31.8021 7.8151 32.7656 7.24219C33.7552 6.64323 35.0052 6.31771 36.5156 6.26562C36.776 6.23958 36.9714 6.22656 37.1016 6.22656H52.7656C53.4948 6.22656 54.1068 6.44792 54.6016 6.89062C55.1224 7.30729 55.3828 7.82812 55.3828 8.45312ZM68.3906 23.9219C66.099 23.8438 64.3672 23.3099 63.1953 22.3203C62.0234 21.3047 61.1771 20.1719 60.6562 18.9219C60.1354 17.6458 59.875 16.3568 59.875 15.0547C59.875 13.7005 60.1224 12.3984 60.6172 11.1484C61.138 9.8724 61.9844 8.73958 63.1562 7.75C64.3542 6.73438 65.8646 6.21354 67.6875 6.1875H82.5312C83.2604 6.1875 83.8724 6.4349 84.3672 6.92969C84.888 7.39844 85.1484 7.97135 85.1484 8.64844C85.1484 9.35156 84.888 9.95052 84.3672 10.4453C83.8724 10.9141 83.2604 11.1484 82.5312 11.1484H67.9219C67.349 11.1484 66.8411 11.3438 66.3984 11.7344C65.9818 12.125 65.6693 12.6328 65.4609 13.2578C65.2786 13.8828 65.1875 14.4948 65.1875 15.0938C65.1875 15.7448 65.2786 16.3828 65.4609 17.0078C65.6693 17.6328 65.9818 18.1406 66.3984 18.5312C66.8411 18.8958 67.349 19.0911 67.9219 19.1172H82.5312C83.2604 19.1172 83.8724 19.3516 84.3672 19.8203C84.888 20.2891 85.1484 20.849 85.1484 21.5C85.1484 22.1771 84.888 22.75 84.3672 23.2188C83.8724 23.6875 83.2604 23.9219 82.5312 23.9219H68.3906ZM84.6797 14.9766C84.6797 15.4714 84.4583 15.901 84.0156 16.2656C83.625 16.6042 83.1302 16.7734 82.5312 16.7734H69.7578C69.1589 16.7734 68.651 16.6042 68.2344 16.2656C67.8177 15.901 67.6094 15.4714 67.6094 14.9766C67.6094 14.5078 67.8177 14.0911 68.2344 13.7266C68.651 13.388 69.1589 13.2188 69.7578 13.2188H82.5312C83.1302 13.2188 83.638 13.401 84.0547 13.7656C84.4714 14.1042 84.6797 14.5078 84.6797 14.9766ZM90.4609 11.1094C90.9557 9.85938 91.7891 8.73958 92.9609 7.75C94.1589 6.73438 95.6693 6.21354 97.4922 6.1875H112.18C112.909 6.1875 113.521 6.44792 114.016 6.96875C114.536 7.46354 114.797 8.07552 114.797 8.80469C114.797 9.53385 114.536 10.1589 114.016 10.6797C113.521 11.1745 112.909 11.4219 112.18 11.4219H97.3359C96.8411 11.4219 96.4115 11.6302 96.0469 12.0469C95.6823 12.4375 95.3958 12.9062 95.1875 13.4531C95.0052 14 94.9141 14.5208 94.9141 15.0156V21.8516C94.7578 23.4141 93.8984 24.2604 92.3359 24.3906C91.6068 24.3906 90.9688 24.1562 90.4219 23.6875C89.901 23.1927 89.6406 22.5807 89.6406 21.8516V15.0547H89.6797C89.6797 13.7005 89.9401 12.3854 90.4609 11.1094ZM121.359 0.25C122.062 0.276042 122.661 0.536458 123.156 1.03125C123.651 1.5 123.911 2.08594 123.938 2.78906V21.9297C123.781 23.4922 122.922 24.3385 121.359 24.4688C120.63 24.4688 119.992 24.2344 119.445 23.7656C118.924 23.2708 118.664 22.6589 118.664 21.9297V2.78906C118.69 2.0599 118.964 1.46094 119.484 0.992188C120.005 0.497396 120.63 0.25 121.359 0.25ZM128.039 7.125C129.784 5.95312 132.141 4.76823 135.109 3.57031L141.516 0.835938C141.802 0.705729 142.115 0.627604 142.453 0.601562C143.182 0.549479 143.807 0.770833 144.328 1.26562C144.849 1.73438 145.109 2.34635 145.109 3.10156C145.109 3.96094 144.927 4.59896 144.562 5.01562C144.224 5.40625 143.781 5.73177 143.234 5.99219L137.766 8.0625C136.698 8.47917 135.682 8.89583 134.719 9.3125C133.781 9.70312 132.922 10.1589 132.141 10.6797C131.359 11.1484 130.943 11.6823 130.891 12.2812C130.943 12.8542 131.359 13.388 132.141 13.8828C132.922 14.4036 133.781 14.8724 134.719 15.2891C135.682 15.6797 136.698 16.0833 137.766 16.5L143.859 18.7266C144.406 18.987 144.849 19.3255 145.188 19.7422C145.552 20.1328 145.734 20.7578 145.734 21.6172C145.734 22.3724 145.474 22.9974 144.953 23.4922C144.432 23.9609 143.807 24.1693 143.078 24.1172C142.74 24.0911 142.427 24.013 142.141 23.8828L135.109 20.9922C132.141 19.7943 129.771 18.6094 128 17.4375C126.255 16.2396 125.37 14.5208 125.344 12.2812C125.37 10.0417 126.268 8.32292 128.039 7.125ZM170.656 0.875C171.984 0.901042 173.169 1.31771 174.211 2.125C175.253 2.93229 176.086 3.89583 176.711 5.01562C177.362 6.13542 177.844 7.32031 178.156 8.57031C178.469 9.82031 178.625 11.0964 178.625 12.3984C178.625 14.1172 178.352 15.8099 177.805 17.4766C177.284 19.1172 176.411 20.5755 175.188 21.8516C173.99 23.1276 172.479 23.8177 170.656 23.9219H157.023C155.201 23.8438 153.677 23.1667 152.453 21.8906C151.229 20.6146 150.357 19.1432 149.836 17.4766C149.341 15.8099 149.094 14.1172 149.094 12.3984C149.094 10.6797 149.354 9 149.875 7.35938C150.396 5.69271 151.255 4.22135 152.453 2.94531C153.677 1.64323 155.201 0.953125 157.023 0.875H157.766H169.914H170.656ZM169.328 18.6875C170.318 18.6354 171.138 18.2708 171.789 17.5938C172.466 16.8906 172.948 16.0833 173.234 15.1719C173.521 14.2604 173.664 13.3359 173.664 12.3984C173.664 11.4609 173.508 10.5495 173.195 9.66406C172.909 8.7526 172.44 7.94531 171.789 7.24219C171.138 6.53906 170.318 6.16146 169.328 6.10938H158.234C157.245 6.16146 156.424 6.53906 155.773 7.24219C155.122 7.94531 154.641 8.7526 154.328 9.66406C154.042 10.5495 153.898 11.4609 153.898 12.3984C153.898 13.3359 154.042 14.2604 154.328 15.1719C154.615 16.0833 155.083 16.8906 155.734 17.5938C156.411 18.2708 157.245 18.6354 158.234 18.6875H169.328Z" fill="#FFFAFA"/>
</svg>
